<svg xmlns="http://www.w3.org/2000/svg" viewBox="0 0 512 512">
  <rect width="512" height="512" fill="#f0f0f0"/>
  <g fill="#d80027">
    <rect y="0" width="512" height="39.4"/>
    <rect y="78.8" width="512" height="39.4"/>
    <rect y="157.6" width="512" height="39.4"/>
    <rect y="236.4" width="512" height="39.4"/>
    <rect y="315.2" width="512" height="39.4"/>
    <rect y="394" width="512" height="39.4"/>
    <rect y="472.8" width="512" height="39.4"/>
  </g>
  <rect y="0" width="256" height="275.2" fill="#0052b4"/>
  <g fill="#f0f0f0">
    <polygon points="99.8,66.8 95.7,80.1 81.9,80.1 93.1,88.1 89,101.4 100.2,93.4 111.4,101.4 107.3,88.1 118.5,80.1 104.7,80.1"/>
    <polygon points="47.7,66.8 43.6,80.1 29.8,80.1 41,88.1 36.9,101.4 48.1,93.4 59.3,101.4 55.2,88.1 66.4,80.1 52.6,80.1"/>
    <polygon points="99.8,115.5 95.7,128.8 81.9,128.8 93.1,136.8 89,150.1 100.2,142.1 111.4,150.1 107.3,136.8 118.5,128.8 104.7,128.8"/>
    <polygon points="47.7,115.5 43.6,128.8 29.8,128.8 41,136.8 36.9,150.1 48.1,142.1 59.3,150.1 55.2,136.8 66.4,128.8 52.6,128.8"/>
    <polygon points="99.8,164.2 95.7,177.5 81.9,177.5 93.1,185.5 89,198.8 100.2,190.8 111.4,198.8 107.3,185.5 118.5,177.5 104.7,177.5"/>
    <polygon points="47.7,164.2 43.6,177.5 29.8,177.5 41,185.5 36.9,198.8 48.1,190.8 59.3,198.8 55.2,185.5 66.4,177.5 52.6,177.5"/>
    <polygon points="99.8,212.9 95.7,226.2 81.9,226.2 93.1,234.2 89,247.5 100.2,239.5 111.4,247.5 107.3,234.2 118.5,226.2 104.7,226.2"/>
    <polygon points="47.7,212.9 43.6,226.2 29.8,226.2 41,234.2 36.9,247.5 48.1,239.5 59.3,247.5 55.2,234.2 66.4,226.2 52.6,226.2"/>
    <polygon points="151.9,66.8 147.8,80.1 134,80.1 145.2,88.1 141.1,101.4 152.3,93.4 163.5,101.4 159.4,88.1 170.6,80.1 156.8,80.1"/>
    <polygon points="151.9,115.5 147.8,128.8 134,128.8 145.2,136.8 141.1,150.1 152.3,142.1 163.5,150.1 159.4,136.8 170.6,128.8 156.8,128.8"/>
    <polygon points="151.9,164.2 147.8,177.5 134,177.5 145.2,185.5 141.1,198.8 152.3,190.8 163.5,198.8 159.4,185.5 170.6,177.5 156.8,177.5"/>
    <polygon points="151.9,212.9 147.8,226.2 134,226.2 145.2,234.2 141.1,247.5 152.3,239.5 163.5,247.5 159.4,234.2 170.6,226.2 156.8,226.2"/>
    <polygon points="204,66.8 199.9,80.1 186.1,80.1 197.3,88.1 193.2,101.4 204.4,93.4 215.6,101.4 211.5,88.1 222.7,80.1 208.9,80.1"/>
    <polygon points="204,115.5 199.9,128.8 186.1,128.8 197.3,136.8 193.2,150.1 204.4,142.1 215.6,150.1 211.5,136.8 222.7,128.8 208.9,128.8"/>
    <polygon points="204,164.2 199.9,177.5 186.1,177.5 197.3,185.5 193.2,198.8 204.4,190.8 215.6,198.8 211.5,185.5 222.7,177.5 208.9,177.5"/>
    <polygon points="204,212.9 199.9,226.2 186.1,226.2 197.3,234.2 193.2,247.5 204.4,239.5 215.6,247.5 211.5,234.2 222.7,226.2 208.9,226.2"/>
  </g>
</svg>
