<svg width="200" height="200" viewBox="0 0 200 200" fill="none" xmlns="http://www.w3.org/2000/svg" role="img" aria-label="Zero One Group">
  <rect width="200" height="200" fill="#FFFFFF"/>
  <g transform="translate(8 46) scale(1.28)" fill="#111111">
    <path d="M40.6847 38.1566C47.1059 38.1566 52.3295 43.4041 52.3295 49.8547C52.3295 56.3053 47.1059 61.5528 40.6847 61.5528C34.2634 61.5528 29.0398 56.3053 29.0398 49.8547C29.0398 43.4041 34.2634 38.1566 40.6847 38.1566ZM40.6847 26.0625C27.6041 26.0625 17 36.7143 17 49.8547C17 62.9951 27.6041 73.6476 40.6847 73.6476C53.7653 73.6476 64.3693 62.9951 64.3693 49.8547C64.3693 36.7143 53.7653 26.0625 40.6847 26.0625Z"/>
    <path d="M82.4171 26.0625V73.6484H68.8828V32.8606L75.65 26.0633H82.4171V26.0625ZM82.4171 26.0625V73.6484H68.8828"/>
  </g>
  <text x="118" y="86" fill="#111111" font-family="Arial, Helvetica, sans-serif" font-size="18" font-weight="800" letter-spacing="0.04em">ZERO</text>
  <text x="118" y="108" fill="#111111" font-family="Arial, Helvetica, sans-serif" font-size="18" font-weight="800" letter-spacing="0.12em">ONE</text>
  <text x="118" y="130" fill="#111111" font-family="Arial, Helvetica, sans-serif" font-size="18" font-weight="800" letter-spacing="0.02em">GROUP</text>
</svg>
